<?xml version="1.0" standalone="no"?>
<!DOCTYPE svg PUBLIC "-//W3C//DTD SVG 20010904//EN"
 "http://www.w3.org/TR/2001/REC-SVG-20010904/DTD/svg10.dtd">
<svg version="1.0" xmlns="http://www.w3.org/2000/svg"
 width="200.000000pt" height="200.000000pt" viewBox="0 0 200.000000 200.000000"
 preserveAspectRatio="xMidYMid meet">

<g transform="translate(0.000000,200.000000) scale(0.100000,-0.100000)"
fill="#124256" stroke="none">
<path d="M854 1612 c-17 -9 -46 -29 -65 -44 -20 -15 -53 -32 -75 -36 l-39 -9
55 -26 c60 -29 125 -35 180 -16 30 11 32 14 26 48 -3 20 -6 51 -6 69 0 27 -4
32 -22 32 -13 -1 -37 -9 -54 -18z"/>
<path d="M1000 1557 c0 -3 9 -47 19 -98 34 -167 44 -292 38 -489 -3 -109 -12
-214 -21 -255 -9 -38 -16 -71 -16 -73 0 -2 29 17 64 42 120 87 256 136 373
136 57 0 63 2 69 24 3 12 1 63 -5 112 -34 307 -200 506 -498 598 -13 4 -23 5
-23 3z"/>
<path d="M931 1300 c-71 -199 -191 -422 -301 -558 -28 -35 -49 -66 -47 -69 9
-8 78 -21 151 -28 73 -7 201 8 222 26 37 31 53 510 22 659 l-13 65 -34 -95z"/>
<path d="M1430 694 c-175 -90 -394 -128 -737 -128 -217 -1 -233 -2 -233 -19 0
-28 25 -80 49 -101 28 -25 27 -36 -4 -36 -19 0 -25 -5 -25 -21 0 -19 4 -21 39
-16 21 2 54 12 73 21 32 15 36 15 69 -1 44 -23 133 -23 177 0 30 17 34 17 65
0 43 -23 141 -23 185 0 30 17 34 17 65 0 43 -23 132 -23 176 0 33 16 37 16 69
1 19 -9 52 -19 73 -21 34 -5 39 -3 39 14 0 16 -9 22 -39 27 l-40 6 35 51 c18
28 43 80 54 116 23 74 27 154 8 151 -7 0 -51 -21 -98 -44z"/>
</g>
</svg>
